<?xml version="1.0" standalone="no"?>
<!DOCTYPE svg PUBLIC "-//W3C//DTD SVG 20010904//EN"
 "http://www.w3.org/TR/2001/REC-SVG-20010904/DTD/svg10.dtd">
<svg version="1.0" xmlns="http://www.w3.org/2000/svg"
 width="702.000000pt" height="701.000000pt" viewBox="0 0 702.000000 701.000000"
 preserveAspectRatio="xMidYMid meet">
<metadata>
Created by potrace 1.16, written by Peter Selinger 2001-2019
</metadata>
<g transform="translate(0.000000,701.000000) scale(0.100000,-0.100000)"
fill="#000000" stroke="none">
<path d="M2227 6963 c-57 -61 -74 -169 -38 -249 19 -41 94 -114 118 -114 7 0
13 -3 13 -7 -1 -5 -9 -72 -19 -150 l-19 -142 -206 -226 -206 -225 0 -552 0
-553 82 -82 83 -83 -93 -93 c-50 -51 -92 -97 -92 -102 0 -5 43 -53 95 -105
l95 -95 -90 -90 -90 -90 0 -934 0 -934 -49 -76 c-148 -232 -227 -493 -219
-729 l3 -92 -582 0 -583 0 0 -50 0 -50 3095 0 3095 0 0 50 0 50 -578 0 -579 0
0 118 c0 143 -15 236 -58 368 -61 186 -163 361 -312 535 -134 157 -289 286
-570 472 -104 68 -235 162 -293 208 -219 175 -427 411 -538 612 -86 155 -98
197 -127 458 -15 129 -28 236 -31 238 -12 12 -18 -27 -43 -246 -25 -220 -30
-244 -63 -321 -49 -112 -108 -214 -187 -319 -66 -90 -294 -325 -388 -402 l-53
-43 0 544 0 543 -90 90 -90 90 95 95 c52 52 95 100 95 105 0 5 -43 53 -95 105
l-95 95 85 85 85 85 0 545 0 545 -97 111 c-54 61 -145 164 -204 230 l-105 120
-13 114 c-7 63 -15 128 -18 144 -5 25 -4 28 16 21 11 -3 46 -1 77 5 45 10 65
21 105 59 71 69 67 87 -12 51 -83 -37 -174 -17 -236 53 -52 59 -64 128 -37
215 9 30 -7 28 -39 -5z m155 -845 c25 -24 100 -105 167 -180 l121 -136 0 -500
0 -500 -65 -61 c-36 -33 -69 -61 -73 -61 -4 0 -31 24 -60 53 l-52 53 40 39 40
39 0 456 0 455 -35 44 c-20 25 -56 67 -82 94 l-46 50 -39 -44 c-21 -24 -61
-70 -88 -102 l-50 -58 0 -442 0 -441 45 -46 46 -46 -22 -28 c-12 -15 -40 -39
-62 -53 l-40 -25 -68 68 -69 68 0 488 0 487 168 184 c92 102 169 186 172 186
3 1 26 -18 52 -41z m-27 -364 l25 -16 0 -414 0 -414 -25 -16 c-25 -16 -27 -16
-50 6 l-25 23 0 395 c0 382 1 395 21 423 24 34 23 34 54 13z m10 -1094 c13 0
75 -62 75 -75 0 -6 -17 -27 -37 -46 -74 -69 -68 -69 -129 -8 l-54 53 52 53
c47 47 54 51 68 38 9 -8 21 -15 25 -15z m-220 -200 c-3 -5 3 -6 13 -4 11 3 30
-8 52 -31 40 -42 38 -48 -34 -109 l-47 -40 -54 54 -55 54 52 53 c39 40 55 50
65 42 7 -6 11 -15 8 -19z m420 0 c13 0 75 -62 75 -75 0 -6 -17 -27 -37 -46
-74 -69 -68 -69 -129 -8 l-54 53 52 53 c47 47 54 51 68 38 9 -8 21 -15 25 -15z
m-200 -200 c13 0 75 -62 75 -75 0 -6 -17 -27 -37 -46 -74 -69 -68 -69 -129 -8
l-54 53 52 53 c47 47 54 51 68 38 9 -8 21 -15 25 -15z m-337 -1932 l-43 -36
-3 826 -2 826 42 43 43 44 3 -833 2 -833 -42 -37z m325 1598 c12 10 43 39 70
63 l47 45 0 -674 0 -675 -99 -72 c-55 -40 -102 -73 -106 -73 -3 0 -22 -12 -41
-26 l-34 -26 0 772 0 772 70 -63 c70 -62 70 -62 93 -43z m325 -538 l-3 -571
-42 -23 -43 -22 0 623 0 624 45 -30 45 -31 -2 -570z m801 -1240 l1 -908 -445
0 -445 0 0 124 c0 369 115 755 317 1061 33 50 105 146 160 215 56 69 131 170
168 225 64 96 223 401 227 434 9 84 16 -405 17 -1151z m343 717 c40 -60 121
-168 178 -240 129 -159 195 -261 271 -419 130 -269 208 -615 197 -881 l-3 -80
-437 -3 -438 -2 0 857 c0 472 3 929 7 1015 l6 157 72 -147 c40 -81 106 -196
147 -257z m252 36 c117 -99 220 -174 401 -292 404 -265 651 -531 778 -839 61
-148 80 -238 81 -390 l1 -135 -371 -3 -371 -2 -6 172 c-12 327 -74 581 -212
863 -78 158 -149 268 -293 446 -97 121 -207 290 -271 417 -20 38 -10 31 80
-62 56 -58 138 -137 183 -175z m-855 192 c-23 -43 -55 -103 -71 -133 -30 -58
-99 -153 -213 -294 -232 -287 -377 -613 -440 -986 -9 -52 -19 -173 -22 -267
l-6 -173 -372 0 -372 0 -7 58 c-4 32 -2 102 4 156 32 284 183 570 431 818 122
121 234 208 469 363 235 156 375 268 520 416 63 64 117 118 118 118 2 1 -15
-34 -39 -76z"/>
<path d="M2736 1062 c-3 -5 -53 -139 -111 -298 -59 -159 -114 -302 -124 -319
-11 -19 -28 -32 -46 -35 -18 -3 -31 -12 -33 -23 -3 -15 7 -17 102 -17 82 0
106 3 106 13 0 8 -11 19 -25 25 -24 11 -24 12 -10 59 8 26 23 73 33 103 l19
55 94 3 95 3 39 -108 c22 -59 39 -116 40 -128 0 -19 6 -20 94 -20 67 0 96 4
99 13 2 7 -9 15 -27 18 -60 12 -61 16 -239 479 -65 168 -88 206 -106 177z m43
-275 c17 -49 31 -93 31 -98 0 -5 -32 -9 -71 -9 -53 0 -70 3 -67 13 3 6 18 54
33 105 16 51 32 89 36 85 4 -4 21 -48 38 -96z"/>
<path d="M20 1045 c0 -9 11 -20 24 -24 35 -14 82 -75 170 -220 78 -130 79
-132 84 -210 2 -44 1 -100 -2 -126 -6 -40 -12 -48 -37 -57 -17 -6 -28 -15 -26
-22 5 -15 226 -21 241 -6 14 14 -9 30 -42 30 -32 0 -42 35 -42 146 0 111 5
125 100 284 78 129 109 167 151 182 16 5 29 16 29 24 0 11 -20 14 -95 14 -75
0 -95 -3 -95 -14 0 -8 7 -17 16 -20 10 -4 13 -13 9 -26 -7 -21 -131 -239 -144
-253 -5 -5 -43 53 -86 128 -59 103 -75 139 -67 147 31 31 13 38 -88 38 -83 0
-100 -3 -100 -15z"/>
<path d="M1670 1046 c0 -7 15 -17 33 -22 l32 -10 3 -279 c1 -154 0 -290 -3
-302 -3 -13 -14 -23 -27 -25 -13 -2 -24 -11 -26 -20 -3 -16 9 -18 140 -20 207
-2 267 2 324 23 138 52 226 204 211 366 -15 158 -113 263 -272 292 -32 6 -139
11 -237 11 -143 0 -178 -3 -178 -14z m392 -61 c64 -23 131 -84 165 -153 24
-48 28 -70 28 -137 0 -68 -4 -89 -28 -138 -46 -94 -132 -140 -258 -139 -66 1
-106 13 -121 36 -4 6 -8 131 -8 278 0 203 3 268 13 272 22 10 160 -3 209 -19z"/>
<path d="M926 962 c-2 -4 -48 -120 -101 -256 -53 -137 -102 -257 -108 -267 -7
-11 -27 -24 -44 -30 -18 -6 -33 -17 -33 -25 0 -11 20 -14 95 -14 79 0 95 3 95
15 0 9 -9 19 -20 23 -18 7 -18 9 9 87 l28 80 88 0 89 0 32 -80 c18 -44 31 -88
28 -97 -7 -23 23 -30 110 -26 77 3 99 21 44 36 -19 5 -41 21 -53 38 -11 16
-65 141 -120 277 -75 186 -104 247 -117 247 -9 0 -19 -4 -22 -8z"/>
<path d="M4025 714 c-54 -141 -107 -267 -117 -280 -10 -12 -28 -24 -41 -26
-12 -2 -23 -11 -25 -20 -3 -16 6 -18 92 -18 77 0 96 3 96 14 0 8 -9 18 -20 21
-25 8 -25 15 9 100 l27 70 88 0 88 0 30 -75 c17 -41 31 -86 32 -100 1 -24 3
-25 89 -28 81 -3 88 -1 85 15 -2 10 -13 19 -25 21 -39 6 -63 50 -167 307 -81
197 -106 251 -122 253 -16 2 -33 -33 -119 -254z"/>
<path d="M5588 963 c-127 -3 -168 -7 -168 -16 0 -7 14 -18 30 -24 l30 -11 0
-229 c0 -125 -3 -238 -6 -250 -3 -11 -14 -23 -25 -26 -10 -3 -19 -12 -19 -21
0 -14 21 -16 169 -16 100 0 172 4 176 10 3 5 9 32 12 60 5 40 3 50 -9 50 -8 0
-20 -11 -26 -25 -22 -47 -124 -63 -162 -25 -17 17 -20 33 -20 120 l0 100 39 0
c69 0 101 -11 107 -36 12 -46 31 -26 38 38 3 34 4 64 1 66 -3 3 -16 0 -30 -6
-14 -7 -55 -12 -90 -12 l-65 0 0 100 0 100 48 -1 c67 -1 96 -11 107 -37 14
-31 31 -27 39 9 8 43 8 89 -1 87 -5 -1 -83 -4 -175 -5z"/>
<path d="M6118 963 c-127 -3 -168 -7 -168 -16 0 -7 14 -18 30 -24 l30 -11 0
-229 c0 -125 -3 -238 -6 -250 -3 -11 -14 -23 -25 -26 -10 -3 -19 -12 -19 -21
0 -14 21 -16 169 -16 100 0 172 4 176 10 3 5 9 32 12 60 5 40 3 50 -9 50 -8 0
-20 -11 -26 -25 -22 -47 -124 -63 -162 -25 -17 17 -20 33 -20 120 l0 100 39 0
c69 0 101 -11 107 -36 12 -46 31 -26 38 38 3 34 4 64 1 66 -3 3 -16 0 -30 -6
-14 -7 -55 -12 -90 -12 l-65 0 0 100 0 100 48 -1 c67 -1 96 -11 107 -37 14
-31 31 -27 39 9 8 43 8 89 -1 87 -5 -1 -83 -4 -175 -5z"/>
<path d="M3170 946 c0 -9 8 -16 19 -16 47 0 51 -17 51 -244 0 -246 -3 -274
-34 -278 -11 -2 -21 -10 -21 -18 0 -23 326 -27 400 -5 70 20 145 87 175 157
54 125 19 284 -77 352 -76 54 -102 59 -315 64 -177 4 -198 2 -198 -12z m362
-59 c59 -25 115 -83 138 -143 51 -138 -9 -281 -132 -315 -61 -16 -155 -13
-184 6 l-24 15 0 224 c0 122 3 226 8 230 11 13 153 0 194 -17z"/>
<path d="M4860 948 c0 -7 14 -19 30 -25 l30 -11 0 -229 c0 -125 -3 -238 -6
-250 -3 -11 -14 -23 -25 -26 -10 -3 -19 -12 -19 -21 0 -14 16 -16 106 -16 95
0 105 2 102 17 -2 10 -12 19 -23 21 -42 8 -45 25 -45 270 l0 234 57 -4 c45 -4
61 -10 79 -32 76 -88 38 -189 -78 -210 -25 -5 -38 -12 -38 -23 0 -13 10 -15
58 -11 116 9 182 72 182 176 0 66 -15 97 -59 125 -32 20 -52 22 -193 26 -130
2 -158 1 -158 -11z"/>
<path d="M6480 947 c0 -7 14 -18 30 -24 l30 -11 0 -229 c0 -125 -3 -238 -6
-250 -3 -11 -14 -23 -25 -26 -10 -3 -19 -12 -19 -21 0 -14 16 -16 106 -16 95
0 105 2 102 17 -2 10 -12 19 -23 21 -35 6 -45 32 -45 119 l0 83 48 0 c46 -1
48 -2 89 -58 100 -138 154 -182 223 -182 45 0 39 31 -16 82 -26 24 -73 76
-106 116 l-60 72 32 36 c41 47 50 73 50 141 0 49 -4 59 -33 88 -45 45 -89 55
-244 55 -102 0 -133 -3 -133 -13z m260 -52 c43 -22 63 -68 58 -132 -6 -71 -35
-103 -94 -103 -75 0 -74 -2 -74 131 l0 119 40 0 c23 0 54 -7 70 -15z"/>
</g>
</svg>
